<svg width="174" height="47" viewBox="0 0 174 47" fill="none" xmlns="http://www.w3.org/2000/svg">
<g clip-path="url(#clip0_302_389)">
<g clip-path="url(#clip1_302_389)">
<path d="M38.2262 35.7295L28.5022 45.4535C27.5471 46.4078 26.2523 46.9439 24.9021 46.9439C23.552 46.9439 22.2572 46.4078 21.3022 45.4535L11.5771 35.7295C12.0078 35.6009 12.3856 35.3369 12.6544 34.9766C12.9231 34.6163 13.0686 34.179 13.0692 33.7295V17.5595C13.0711 17.174 12.9625 16.7961 12.7561 16.4705C14.7573 15.5414 16.9956 15.2497 19.1681 15.6348C21.3406 16.0199 23.3422 17.0632 24.9021 18.6235C26.4625 17.0639 28.4638 16.0208 30.636 15.635C32.8081 15.2493 35.0462 15.5395 37.0481 16.4665C36.8435 16.7943 36.7351 17.1731 36.7352 17.5595V33.7295C36.7344 34.1792 36.8792 34.617 37.1479 34.9775C37.4167 35.338 37.795 35.6019 38.2262 35.7295Z" fill="#D21919"/>
<path d="M13.065 17.5585V33.7285C13.0644 34.178 12.919 34.6153 12.6502 34.9756C12.3814 35.3359 12.0037 35.5999 11.573 35.7285L9.68398 33.8385C8.46209 32.6135 7.5532 31.1122 7.0342 29.4616C6.51521 27.8111 6.40136 26.0598 6.70231 24.3559C7.00326 22.6521 7.71014 21.0457 8.76316 19.6728C9.81618 18.2999 11.1844 17.2008 12.752 16.4685C12.9585 16.7944 13.0672 17.1727 13.065 17.5585Z" fill="#7B76F1"/>
<path d="M40.1161 33.8395L38.2261 35.7295C37.7932 35.6035 37.413 35.3404 37.1425 34.9797C36.872 34.619 36.7259 34.1803 36.7261 33.7295V17.5595C36.726 17.1731 36.8345 16.7943 37.0391 16.4665C38.6069 17.1991 39.9752 18.2984 41.0285 19.6715C42.0817 21.0446 42.7889 22.6511 43.0902 24.3552C43.3915 26.0592 43.2781 27.8108 42.7596 29.4618C42.241 31.1128 41.3326 32.6147 40.1111 33.8405L40.1161 33.8395Z" fill="#7B76F1"/>
<path d="M49.8 23.8655V27.4175C49.8 29.6453 48.915 31.7819 47.3397 33.3572C45.7644 34.9325 43.6278 35.8175 41.4 35.8175H38.816C38.6156 35.8176 38.4163 35.7889 38.224 35.7325L40.114 33.8425C41.3355 32.6167 42.2439 31.1148 42.7625 29.4638C43.281 27.8128 43.3944 26.0612 43.0931 24.3572C42.7918 22.6531 42.0847 21.0466 41.0314 19.6735C39.9782 18.3004 38.6098 17.2011 37.042 16.4685C37.2279 16.1649 37.4886 15.9141 37.7993 15.7402C38.1099 15.5664 38.46 15.4752 38.816 15.4755H40.707C39.686 12.0771 37.597 9.09832 34.7497 6.98074C31.9024 4.86315 28.4484 3.71958 24.9 3.71958C21.3516 3.71958 17.8976 4.86315 15.0503 6.98074C12.203 9.09832 10.114 12.0771 9.09299 15.4755H10.978C11.3349 15.4749 11.6858 15.5666 11.9967 15.7419C12.3076 15.9171 12.5678 16.1699 12.752 16.4755C11.1827 17.2061 9.81271 18.3044 8.75829 19.6772C7.70387 21.0501 6.9961 22.657 6.69501 24.3616C6.39392 26.0663 6.5084 27.8184 7.02873 29.4694C7.54907 31.1204 8.4599 32.6215 9.68399 33.8455L11.573 35.7355C11.3797 35.792 11.1794 35.8207 10.978 35.8205H8.394C7.29118 35.8205 6.19916 35.6032 5.18036 35.181C4.16156 34.7587 3.23596 34.1399 2.45642 33.3598C1.67689 32.5797 1.05871 31.6537 0.637224 30.6346C0.215739 29.6155 -0.000786148 28.5233 2.14468e-06 27.4205V23.8685C0.000350374 22.2262 0.482107 20.62 1.3857 19.2486C2.28929 17.8772 3.57508 16.8008 5.084 16.1525C6.02253 11.5907 8.50638 7.49252 12.1162 4.54977C15.726 1.60702 20.2407 0 24.898 0C29.5553 0 34.07 1.60702 37.6798 4.54977C41.2896 7.49252 43.7735 11.5907 44.712 16.1525C46.2212 16.8 47.5075 17.8757 48.4118 19.2466C49.3161 20.6174 49.7987 22.2233 49.8 23.8655Z" fill="#F1F1F1"/>
</g>
</g>
<path d="M64.0188 36.472V14.5969H67.6125L73.8938 25.0969L80.0813 14.5969H83.7375V36.472H80.0501V20.8782L74.925 29.7845H72.8L67.6438 20.8782V36.472H64.0188ZM93.9082 36.8157C91.7207 36.8157 89.9499 36.1595 88.5957 34.847C87.2415 33.5136 86.5645 31.5449 86.5645 28.9407C86.5645 27.3157 86.8665 25.9199 87.4707 24.7532C88.0749 23.5657 88.9186 22.6595 90.002 22.0345C91.0853 21.3886 92.3249 21.0657 93.7207 21.0657C95.1165 21.0657 96.304 21.4094 97.2832 22.097C98.2624 22.7636 99.0124 23.6803 99.5332 24.847C100.054 26.0136 100.314 27.3261 100.314 28.7845V29.597H90.0332C90.1165 31.097 90.5124 32.1699 91.2207 32.8157C91.929 33.4407 92.8457 33.7532 93.9707 33.7532C94.9499 33.7532 95.752 33.524 96.377 33.0657C97.002 32.5865 97.5436 31.8782 98.002 30.9407L100.596 32.7532C99.8249 34.1907 98.877 35.2324 97.752 35.8782C96.6478 36.5032 95.3665 36.8157 93.9082 36.8157ZM90.1895 26.8782H96.8457C96.679 25.899 96.3145 25.149 95.752 24.6282C95.2103 24.0865 94.5124 23.8157 93.6582 23.8157C92.7415 23.8157 91.9811 24.0657 91.377 24.5657C90.7936 25.0657 90.3978 25.8365 90.1895 26.8782ZM103.142 36.472V14.1907H106.673V36.472H103.142ZM116.466 36.8157C115.091 36.8157 113.851 36.4928 112.747 35.847C111.663 35.1803 110.799 34.2636 110.153 33.097C109.528 31.9095 109.216 30.524 109.216 28.9407C109.216 27.3574 109.528 25.9824 110.153 24.8157C110.799 23.6282 111.663 22.7115 112.747 22.0657C113.851 21.399 115.091 21.0657 116.466 21.0657C117.882 21.0657 119.132 21.399 120.216 22.0657C121.32 22.7115 122.184 23.6282 122.809 24.8157C123.434 25.9824 123.747 27.3574 123.747 28.9407C123.747 30.524 123.434 31.9095 122.809 33.097C122.184 34.2636 121.32 35.1803 120.216 35.847C119.132 36.4928 117.882 36.8157 116.466 36.8157ZM116.466 33.6282C117.57 33.6282 118.466 33.222 119.153 32.4095C119.861 31.597 120.216 30.4407 120.216 28.9407C120.216 27.4407 119.861 26.2844 119.153 25.4719C118.466 24.6594 117.57 24.2532 116.466 24.2532C115.382 24.2532 114.497 24.6594 113.809 25.4719C113.122 26.2844 112.778 27.4407 112.778 28.9407C112.778 30.4407 113.122 31.597 113.809 32.4095C114.497 33.222 115.382 33.6282 116.466 33.6282ZM126.281 36.472V21.4407H129.438L129.656 23.2532C129.948 22.6282 130.438 22.1074 131.125 21.6907C131.813 21.274 132.604 21.0657 133.5 21.0657C134.479 21.0657 135.334 21.2949 136.063 21.7532C136.792 22.2115 137.354 22.8678 137.75 23.7219C138.146 22.9511 138.719 22.3157 139.469 21.8157C140.24 21.3157 141.115 21.0657 142.094 21.0657C143.573 21.0657 144.761 21.5865 145.656 22.6282C146.573 23.649 147.031 25.0969 147.031 26.9719V36.472H143.469V27.7844C143.469 26.6803 143.271 25.8157 142.875 25.1907C142.479 24.5657 141.927 24.2532 141.219 24.2532C140.323 24.2532 139.625 24.5761 139.125 25.222C138.646 25.8678 138.406 26.7844 138.406 27.972V36.472H134.875V27.7844C134.875 26.6803 134.667 25.8157 134.25 25.1907C133.834 24.5657 133.271 24.2532 132.563 24.2532C131.688 24.2532 131.011 24.5865 130.531 25.2532C130.052 25.899 129.813 26.8053 129.813 27.972V36.472H126.281ZM150.848 36.472V21.4407H154.348V36.472H150.848ZM152.567 18.972C151.963 18.972 151.442 18.7532 151.004 18.3157C150.567 17.8782 150.348 17.3574 150.348 16.7532C150.348 16.149 150.567 15.6282 151.004 15.1907C151.442 14.7532 151.963 14.5344 152.567 14.5344C153.171 14.5344 153.692 14.7532 154.129 15.1907C154.567 15.6282 154.786 16.149 154.786 16.7532C154.786 17.3574 154.567 17.8782 154.129 18.3157C153.692 18.7532 153.171 18.972 152.567 18.972ZM156.807 36.472L162.65 28.5032L157.463 21.4407H161.525L164.557 25.847L167.65 21.4407H171.557L166.432 28.4095L172.338 36.472H168.213L164.525 31.097L160.838 36.472H156.807Z" fill="white"/>
<defs>
<clipPath id="clip0_302_389">
<rect width="49.8" height="46.9439" fill="white"/>
</clipPath>
<clipPath id="clip1_302_389">
<rect width="49.8" height="46.9439" fill="white"/>
</clipPath>
</defs>
</svg>
